# xmcd
#
# Track frame offsets: 
#        150
#        17494
#        37060
#        71352
#        101896
#        120351
#        137917
#        161926
#        188972
#        209680
#
# Disc length: 3062 seconds
#
# Revision: 1
# Processed by: cddbd v1.5.2PL0 Copyright (c) Steve Scherf et al.
# Submitted via: ExactAudioCopy v0.99pb5
#
DISCID=930bf40a
DTITLE=Sara Noxx - Superior Love - The Dark Side (feat. 18 Summers)
DYEAR=2009
DGENRE=Electronic
TTITLE0=Superior Love (Single Edit)
TTITLE1=Superior Love (Clubmix)
TTITLE2=Superior Love (Girls Under Glass Rmx)
TTITLE3=Superior Love (Dark Territory Rmx)
TTITLE4=Superior Love (Illuminate Rmx)
TTITLE5=Superior Love (Album Version)
TTITLE6=Superior Love (Blutengel Rmx)
TTITLE7=Superior Love (Funker Vogt Rmx)
TTITLE8=Superior Love (In My Rosary Rmx)
TTITLE9=Superior Love (Prelude (Vylevirtue Rmx))
EXTD=
EXTT0=
EXTT1=
EXTT2=
EXTT3=
EXTT4=
EXTT5=
EXTT6=
EXTT7=
EXTT8=
EXTT9=
PLAYORDER=
